#!OML:ASF F:\VICON\USERDATA\INSTALL\rory3\rory3.ASF
:FULLY-SPECIFIED
:DEGREES
155
root 1.5838 17.9659 -1.21619 -6.05623 -1.35991 5.86141
lowerback 17.0411 -0.531505 -6.36053
upperback 0.557942 -1.83204 1.23466
thorax -8.73878 -0.588574 5.40577
lowerneck -9.67633 0.0478748 -0.00598647
upperneck 22.5542 0.97904 -4.07545
head 8.63559 0.0399156 -1.27397
rclavicle 1.74931e-014 -2.62396e-014
rhumerus -35.4564 -9.44708 -77.9048
rradius 30.7487
rwrist 1.32529
rhand -13.5658 11.267
rfingers 7.12502
rthumb 12.5478 -18.3363
lclavicle 1.74931e-014 -2.62396e-014
lhumerus -35.5785 1.81976 85.0644
lradius 43.7601
lwrist 7.29457
lhand -15.9268 50.8404
lfingers 7.12502
lthumb 10.2708 80.5697
rfemur -27.4818 1.34254 15.5066
rtibia 36.411
rfoot -11.9922 -14.7904
rtoes 3.62661
lfemur 6.03279 -5.30547 -32.3459
ltibia 21.487
lfoot -12.1016 -0.649055
ltoes -14.9861
156
root 1.56596 17.9782 -1.07214 -5.79762 -1.32691 5.59526
lowerback 16.7622 -0.595799 -6.07482
upperback 0.569986 -1.83937 1.27794
thorax -8.57496 -0.610467 5.27982
lowerneck -9.60356 0.018062 0.143263
upperneck 22.3767 0.909586 -4.1092
head 8.56002 0.0195488 -1.31558
rclavicle -1.85367e-014 9.54166e-015
rhumerus -35.3511 -9.8414 -77.875
rradius 30.5624
rwrist 1.6117
rhand -13.5384 11.5094
rfingers 7.12502
rthumb 12.5742 -18.0922
lclavicle -1.85367e-014 9.54166e-015
lhumerus -35.428 1.42836 85.1427
lradius 43.7547
lwrist 8.06707
lhand -17.3029 48.8469
lfingers 7.12502
lthumb 8.94304 78.6374
rfemur -26.9769 2.34672 15.5082
rtibia 32.7272
rfoot -12.3691 -16.0849
rtoes 4.01191
lfemur 6.4856 -5.21527 -31.9295
ltibia 21.0341
lfoot -11.9391 -1.00905
ltoes -15.1463
157
root 1.55251 17.9974 -0.921818 -5.60886 -1.14486 5.64597
lowerback 16.4587 -0.68145 -6.10314
upperback 0.671596 -1.93829 1.25218
thorax -8.28035 -0.672762 5.27517
lowerneck -9.82152 -0.0763272 0.141808
upperneck 22.367 0.79865 -4.18929
head 8.5948 -0.0432043 -1.35423
rclavicle 1.26725e-014 1.35174e-014
rhumerus -35.2158 -9.98331 -77.9381
rradius 30.5476
rwrist 1.7311
rhand -13.6938 12.1067
rfingers 7.12502
rthumb 12.4243 -17.504
lclavicle 1.26725e-014 1.35174e-014
lhumerus -34.9759 1.27328 85.1324
lradius 43.6197
lwrist 8.18896
lhand -17.523 47.874
lfingers 7.12502
lthumb 8.73066 77.6734
rfemur -26.2737 3.237 15.0666
rtibia 29.0465
rfoot -12.7063 -17.2035
rtoes 3.98204
lfemur 6.99033 -5.23173 -31.8939
ltibia 20.5874
lfoot -11.692 -1.492
ltoes -13.1395
158
root 1.53692 18.0194 -0.758932 -5.63885 -1.05116 5.78709
lowerback 16.3177 -0.708427 -6.28784
upperback 0.727059 -1.99863 1.24303
thorax -8.12712 -0.703051 5.37684
lowerneck -10.0972 -0.0725452 -0.168453
upperneck 22.8697 0.825013 -3.92921
head 8.81778 -0.040341 -1.2175
rclavicle -1.20762e-014 2.38542e-015
rhumerus -35.4198 -9.78545 -77.9764
rradius 30.6053
rwrist 1.55952
rhand -13.57 11.7552
rfingers 7.12502
rthumb 12.5437 -17.8482
lclavicle -1.20762e-014 2.38542e-015
lhumerus -34.8366 1.1821 85.1528
lradius 43.6428
lwrist 7.92566
lhand -17.1161 47.9882
lfingers 7.12502
lthumb 9.12332 77.7708
rfemur -25.3902 4.32413 14.4801
rtibia 25.5597
rfoot -12.9444 -18.2548
rtoes 4.35694
lfemur 7.8249 -5.33363 -32.0304
ltibia 20.0519
lfoot -11.5065 -1.80672
ltoes -11.6039
159
root 1.51601 18.0324 -0.602648 -5.53609 -0.953816 5.86232
lowerback 16.2594 -0.718001 -6.4379
upperback 0.608725 -2.04064 1.2229
thorax -8.21415 -0.711135 5.45091
lowerneck -10.8071 -0.0100853 -0.704983
upperneck 23.9773 0.860962 -3.06342
head 9.33174 -0.000742385 -0.839142
rclavicle 1.37658e-014 -2.22639e-014
rhumerus -35.8107 -9.78033 -77.9693
rradius 30.5769
rwrist 1.45337
rhand -13.6476 11.5157
rfingers 7.12502
rthumb 12.4689 -18.0923
lclavicle 1.37658e-014 -2.22639e-014
lhumerus -34.9277 0.813049 85.24
lradius 43.6264
lwrist 7.86509
lhand -17.0507 48.2786
lfingers 7.12502
lthumb 9.18642 78.0585
rfemur -24.7861 5.48497 13.9331
rtibia 22.4362
rfoot -13.0766 -19.2669
rtoes 4.80233
lfemur 8.60789 -5.26163 -32.0184
ltibia 19.3035
lfoot -11.0907 -2.35973
ltoes -10.9949
160
root 1.49661 18.0396 -0.447171 -5.38614 -0.630787 6.0864
lowerback 16.0557 -0.786614 -6.63932
upperback 0.601823 -2.16356 1.12083
thorax -8.08759 -0.770395 5.47294
lowerneck -11.3599 -0.0317268 -0.976455
upperneck 24.6228 0.789616 -2.55133
head 9.66081 -0.0151405 -0.629876
rclavicle -2.33075e-014 7.15625e-015
rhumerus -35.8158 -10.2144 -77.9167
rradius 30.3145
rwrist 1.60803
rhand -13.8157 13.2314
rfingers 7.12502
rthumb 12.3068 -16.3864
lclavicle -2.33075e-014 7.15625e-015
lhumerus -34.6834 0.450119 85.2702
lradius 43.5794
lwrist 7.75836
lhand -16.4688 48.6264
lfingers 7.12502
lthumb 9.74789 78.3808
rfemur -24.2218 6.53727 13.1408
rtibia 19.6135
rfoot -13.3599 -20.16
rtoes 5.24087
lfemur 9.2244 -5.17411 -32.127
ltibia 18.7262
lfoot -10.9211 -3.26307
ltoes -14.3218
161
root 1.47849 18.0464 -0.276801 -5.44513 -0.248765 6.34025
lowerback 15.9266 -0.886019 -6.88624
upperback 0.657955 -2.33619 1.03582
thorax -7.924 -0.85529 5.55089
lowerneck -10.382 -0.190373 -0.360938
upperneck 23.5406 0.589888 -3.36645
head 9.09567 -0.120078 -1.02607
rclavicle 4.30866e-014 -3.18055e-015
rhumerus -35.818 -10.2601 -77.9821
rradius 30.1834
rwrist 1.41529
rhand -13.9808 14.6497
rfingers 7.12502
rthumb 12.1477 -14.9776
lclavicle 4.30866e-014 -3.18055e-015
lhumerus -34.6864 0.176674 85.3076
lradius 43.8654
lwrist 7.66499
lhand -15.935 48.9343
lfingers 7.12502
lthumb 10.2628 78.6639
rfemur -23.5424 7.59362 12.3219
rtibia 17.4229
rfoot -14.115 -20.9024
rtoes 4.85629
lfemur 10.1946 -5.11446 -32.3088
ltibia 18.0796
lfoot -10.0951 -3.90769
ltoes -11.1263
162
root 1.45235 18.0469 -0.128787 -5.27873 -0.118297 5.92265
lowerback 15.9724 -0.976626 -6.56301
upperback 0.57177 -2.39142 1.17801
thorax -8.04193 -0.883567 5.53786
lowerneck -11.0085 -0.121287 -0.66331
upperneck 24.2473 0.666164 -2.90019
head 9.46111 -0.0751764 -0.814508
rclavicle 1.83876e-015 -6.36111e-015
rhumerus -35.9825 -9.92683 -78.1136
rradius 30.3486
rwrist 1.13901
rhand -14.1666 13.1475
rfingers 7.12502
rthumb 11.9685 -16.4903
lclavicle 1.83876e-015 -6.36111e-015
lhumerus -34.7368 0.0213659 85.3831
lradius 43.9565
lwrist 7.75316
lhand -16.7518 47.2697
lfingers 7.12502
lthumb 9.47484 77.0367
rfemur -23.2703 9.43565 12.1074
rtibia 15.5913
rfoot -15.542 -21.9175
rtoes 4.77898
lfemur 10.7005 -5.02908 -31.6961
ltibia 17.7694
lfoot -10.1531 -4.01691
ltoes -14.8335
163
root 1.43701 18.0409 0.0419989 -5.34008 0.134301 6.31455
lowerback 15.7815 -1.01107 -6.8515
upperback 0.768064 -2.48362 1.00042
thorax -7.70448 -0.941807 5.51343
lowerneck -12.1698 -0.00329406 -0.99783
upperneck 25.1146 0.777516 -2.21489
head 9.99023 0.00393237 -0.51445
rclavicle 1.09829e-014 5.56597e-015
rhumerus -35.9833 -9.94827 -78.2732
rradius 30.4753
rwrist 1.04464
rhand -14.385 11.693
rfingers 7.12502
rthumb 11.7579 -17.9569
lclavicle 1.09829e-014 5.56597e-015
lhumerus -34.3785 -0.244544 85.416
lradius 43.7796
lwrist 7.7472
lhand -17.2224 43.8766
lfingers 7.12502
lthumb 9.02071 73.6637
rfemur -22.7432 10.0477 11.3226
rtibia 14.2509
rfoot -16.3386 -21.8377
rtoes 1.30188
lfemur 11.2403 -5.25567 -32.1303
ltibia 17.7414
lfoot -10.1368 -4.06925
ltoes -13.4284
164
root 1.4122 18.0332 0.1891 -5.28365 0.100988 5.88262
lowerback 15.7579 -1.01221 -6.44588
upperback 0.817998 -2.40194 1.08756
thorax -7.66047 -0.91835 5.35705
lowerneck -12.304 -0.073823 -1.18911
upperneck 25.1489 0.654206 -1.93928
head 10.026 -0.0405981 -0.400384
rclavicle -7.40473e-015 3.18055e-015
rhumerus -36.044 -10.2435 -78.2718
rradius 30.4235
rwrist 1.06694
rhand -14.396 12.504
rfingers 7.12502
rthumb 11.7473 -17.1466
lclavicle -7.40473e-015 3.18055e-015
lhumerus -34.2741 -0.54128 85.4583
lradius 43.9616
lwrist 7.62118
lhand -16.7668 46.6455
lfingers 7.12502
lthumb 9.46032 76.4132
rfemur -22.6097 10.6428 11.6483
rtibia 13.5272
rfoot -16.4115 -21.7443
rtoes 0.650516
lfemur 11.5311 -5.39862 -31.6028
ltibia 18.0106
lfoot -10.0473 -4.31411
ltoes -12.1781
165
root 1.38892 18.0271 0.336363 -5.1684 0.102034 5.61678
lowerback 15.7606 -1.0227 -6.23895
upperback 0.700927 -2.3753 1.17729
thorax -7.79714 -0.902221 5.33463
lowerneck -10.0768 -0.201969 0.384853
upperneck 22.3414 0.483777 -3.77324
head 8.62371 -0.130947 -1.28781
rclavicle -2.28105e-014 7.15625e-015
rhumerus -36.1718 -10.4015 -78.1665
rradius 30.1335
rwrist 1.18368
rhand -14.1592 12.5516
rfingers 7.12502
rthumb 11.9756 -17.0858
lclavicle -2.28105e-014 7.15625e-015
lhumerus -34.3466 -0.808523 85.5434
lradius 44.146
lwrist 7.7566
lhand -15.5966 49.2745
lfingers 7.12502
lthumb 10.5893 78.9877
rfemur -22.7663 10.237 12.1247
rtibia 13.7132
rfoot -15.7952 -20.9429
rtoes 0.584211
lfemur 11.9282 -5.55369 -31.2647
ltibia 18.1038
lfoot -9.76899 -4.73775
ltoes -11.3766
166
root 1.37262 18.0172 0.491112 -5.06221 0.0786673 5.92682
lowerback 15.8242 -0.975971 -6.54169
upperback 0.537165 -2.3836 1.10514
thorax -8.00186 -0.883026 5.43878
lowerneck -11.3968 -0.135352 -0.819039
upperneck 24.4232 0.561727 -2.37776
head 9.59351 -0.0848374 -0.62132
rclavicle 1.75427e-014 3.18055e-015
rhumerus -36.4446 -10.5077 -78.024
rradius 29.9153
rwrist 1.51215
rhand -13.8287 11.366
rfingers 7.12502
rthumb 12.2943 -18.2526
lclavicle 1.75427e-014 3.18055e-015
lhumerus -34.3623 -1.0904 85.6913
lradius 43.8395
lwrist 8.37962
lhand -16.4811 48.6216
lfingers 7.12502
lthumb 9.73605 78.3766
rfemur -22.8307 9.0107 12.2339
rtibia 14.0245
rfoot -13.9892 -19.7305
rtoes 1.05516
lfemur 12.121 -5.75336 -31.6405
ltibia 18.6
lfoot -9.89989 -4.87369
ltoes -11.9322
